<?xml version="1.0" encoding="UTF-8" standalone="no"?>
<!DOCTYPE svg PUBLIC "-//W3C//DTD SVG 1.1//EN"
 "http://www.w3.org/Graphics/SVG/1.1/DTD/svg11.dtd">
<!-- Generated by graphviz version 2.40.1 (20161225.0304)
 -->
<!-- Title: component_structure Pages: 1 -->
<svg width="584pt" height="483pt"
 viewBox="0.00 0.00 583.53 483.00" xmlns="http://www.w3.org/2000/svg" xmlns:xlink="http://www.w3.org/1999/xlink">
<g id="graph0" class="graph" transform="scale(1 1) rotate(0) translate(4 479)">
<title>component_structure</title>
<polygon fill="#ffffff" stroke="transparent" points="-4,4 -4,-479 579.5334,-479 579.5334,4 -4,4"/>
<text text-anchor="middle" x="287.7667" y="-451.8" font-family="Times,serif" font-size="24.00" fill="#000000">Module/Component/Service Relationship</text>
<!-- am -->
<g id="node1" class="node">
<title>am</title>
<ellipse fill="none" stroke="#000000" cx="358.8426" cy="-423" rx="61.99" ry="18"/>
<text text-anchor="middle" x="358.8426" y="-419.3" font-family="Times,serif" font-size="14.00" fill="#000000">app&#45;module.ts</text>
</g>
<!-- ac -->
<g id="node2" class="node">
<title>ac</title>
<ellipse fill="none" stroke="#000000" cx="268.8426" cy="-342" rx="73.387" ry="18"/>
<text text-anchor="middle" x="268.8426" y="-338.3" font-family="Times,serif" font-size="14.00" fill="#000000">app.component.ts</text>
</g>
<!-- am&#45;&gt;ac -->
<g id="edge1" class="edge">
<title>am&#45;&gt;ac</title>
<path fill="none" stroke="#000000" d="M339.7559,-405.822C326.9561,-394.3022 309.9132,-378.9636 295.7434,-366.2107"/>
<polygon fill="#000000" stroke="#000000" points="297.9864,-363.5206 288.212,-359.4325 293.3036,-368.7237 297.9864,-363.5206"/>
<text text-anchor="middle" x="331.8426" y="-380.6" font-family="Times,serif" font-size="8.00" fill="#000000">bootstrap</text>
</g>
<!-- arm -->
<g id="node3" class="node">
<title>arm</title>
<ellipse fill="none" stroke="#000000" cx="448.8426" cy="-342" rx="89.0842" ry="18"/>
<text text-anchor="middle" x="448.8426" y="-338.3" font-family="Times,serif" font-size="14.00" fill="#000000">app&#45;routing.module.ts</text>
</g>
<!-- am&#45;&gt;arm -->
<g id="edge2" class="edge">
<title>am&#45;&gt;arm</title>
<path fill="none" stroke="#000000" d="M385.3782,-399.1179C399.402,-386.4965 416.3203,-371.27 429.1612,-359.7132"/>
<polygon fill="#000000" stroke="#000000" points="383.0208,-396.5308 377.9292,-405.822 387.7036,-401.7338 383.0208,-396.5308"/>
<text text-anchor="middle" x="417.8426" y="-380.6" font-family="Times,serif" font-size="8.00" fill="#000000">import</text>
</g>
<!-- c -->
<g id="node6" class="node">
<title>c</title>
<ellipse fill="none" stroke="#000000" cx="83.8426" cy="-261" rx="83.6854" ry="18"/>
<text text-anchor="middle" x="83.8426" y="-257.3" font-family="Times,serif" font-size="14.00" fill="#000000">concat.component.ts</text>
</g>
<!-- ac&#45;&gt;c -->
<g id="edge12" class="edge">
<title>ac&#45;&gt;c</title>
<path fill="none" stroke="#0000ff" stroke-dasharray="5,2" d="M232.7335,-326.1901C203.478,-313.3809 162.0527,-295.2434 130.3222,-281.3506"/>
<polygon fill="#0000ff" stroke="#0000ff" points="131.3745,-277.9906 120.8103,-277.1859 128.567,-284.4029 131.3745,-277.9906"/>
<text text-anchor="middle" x="191.3426" y="-299.6" font-family="Times,serif" font-size="8.00" fill="#000000">route</text>
</g>
<!-- m -->
<g id="node7" class="node">
<title>m</title>
<ellipse fill="none" stroke="#000000" cx="268.8426" cy="-261" rx="83.3857" ry="18"/>
<text text-anchor="middle" x="268.8426" y="-257.3" font-family="Times,serif" font-size="14.00" fill="#000000">merge.component.ts</text>
</g>
<!-- ac&#45;&gt;m -->
<g id="edge13" class="edge">
<title>ac&#45;&gt;m</title>
<path fill="none" stroke="#0000ff" stroke-dasharray="5,2" d="M268.8426,-323.6198C268.8426,-313.5034 268.8426,-300.7309 268.8426,-289.3637"/>
<polygon fill="#0000ff" stroke="#0000ff" points="272.3427,-289.0284 268.8426,-279.0284 265.3427,-289.0284 272.3427,-289.0284"/>
<text text-anchor="middle" x="277.3426" y="-299.6" font-family="Times,serif" font-size="8.00" fill="#000000">route</text>
</g>
<!-- mr -->
<g id="node8" class="node">
<title>mr</title>
<ellipse fill="none" stroke="#000000" cx="472.8426" cy="-261" rx="102.8821" ry="18"/>
<text text-anchor="middle" x="472.8426" y="-257.3" font-family="Times,serif" font-size="14.00" fill="#000000">merge&#45;retry.component.ts</text>
</g>
<!-- ac&#45;&gt;mr -->
<g id="edge14" class="edge">
<title>ac&#45;&gt;mr</title>
<path fill="none" stroke="#0000ff" stroke-dasharray="5,2" d="M307.6936,-326.5739C340.0281,-313.7352 386.321,-295.3541 421.6717,-281.3178"/>
<polygon fill="#0000ff" stroke="#0000ff" points="423.329,-284.4257 431.3315,-277.4823 420.7457,-277.9198 423.329,-284.4257"/>
<text text-anchor="middle" x="386.3426" y="-299.6" font-family="Times,serif" font-size="8.00" fill="#000000">route</text>
</g>
<!-- ig -->
<g id="node4" class="node">
<title>ig</title>
<ellipse fill="none" stroke="#000000" cx="282.8426" cy="-180" rx="100.1823" ry="18"/>
<text text-anchor="middle" x="282.8426" y="-176.3" font-family="Times,serif" font-size="14.00" fill="#000000">image&#45;grid.component.ts</text>
</g>
<!-- pf -->
<g id="node5" class="node">
<title>pf</title>
<ellipse fill="none" stroke="#000000" cx="282.8426" cy="-99" rx="116.9792" ry="18"/>
<text text-anchor="middle" x="282.8426" y="-95.3" font-family="Times,serif" font-size="14.00" fill="#000000">parameter&#45;form.component.ts</text>
</g>
<!-- ig&#45;&gt;pf -->
<g id="edge6" class="edge">
<title>ig&#45;&gt;pf</title>
<path fill="none" stroke="#000000" d="M282.8426,-161.6198C282.8426,-151.5034 282.8426,-138.7309 282.8426,-127.3637"/>
<polygon fill="#000000" stroke="#000000" points="286.3427,-127.0284 282.8426,-117.0284 279.3427,-127.0284 286.3427,-127.0284"/>
<text text-anchor="middle" x="287.8426" y="-137.6" font-family="Times,serif" font-size="8.00" fill="#000000">ref</text>
</g>
<!-- fs -->
<g id="node9" class="node">
<title>fs</title>
<path fill="none" stroke="#000000" d="M317.8426,-32.7273C317.8426,-34.5331 302.155,-36 282.8426,-36 263.5301,-36 247.8426,-34.5331 247.8426,-32.7273 247.8426,-32.7273 247.8426,-3.2727 247.8426,-3.2727 247.8426,-1.4669 263.5301,0 282.8426,0 302.155,0 317.8426,-1.4669 317.8426,-3.2727 317.8426,-3.2727 317.8426,-32.7273 317.8426,-32.7273"/>
<path fill="none" stroke="#000000" d="M317.8426,-32.7273C317.8426,-30.9214 302.155,-29.4545 282.8426,-29.4545 263.5301,-29.4545 247.8426,-30.9214 247.8426,-32.7273"/>
<text text-anchor="middle" x="282.8426" y="-15.5" font-family="Times,serif" font-size="10.00" fill="#000000">file.service.ts</text>
</g>
<!-- ig&#45;&gt;fs -->
<g id="edge8" class="edge">
<title>ig&#45;&gt;fs</title>
<path fill="none" stroke="#ff0000" d="M351.7367,-161.5589C373.8634,-152.0214 395.9606,-137.8434 408.8426,-117 417.2543,-103.3896 417.2543,-94.6104 408.8426,-81 389.1701,-49.1693 348.0061,-32.8831 318.0665,-24.9305"/>
<polygon fill="#ff0000" stroke="#ff0000" points="350.2472,-158.3855 342.2788,-165.3681 352.8624,-164.8787 350.2472,-158.3855"/>
<text text-anchor="middle" x="425.3426" y="-97.1" font-family="Times,serif" font-size="8.00" fill="#000000">inject</text>
</g>
<!-- pf&#45;&gt;fs -->
<g id="edge7" class="edge">
<title>pf&#45;&gt;fs</title>
<path fill="none" stroke="#ff0000" d="M282.8426,-70.5914C282.8426,-59.1033 282.8426,-46.1861 282.8426,-36.0284"/>
<polygon fill="#ff0000" stroke="#ff0000" points="279.3427,-70.6198 282.8426,-80.6198 286.3427,-70.6199 279.3427,-70.6198"/>
<text text-anchor="middle" x="292.3426" y="-56.6" font-family="Times,serif" font-size="8.00" fill="#000000">inject</text>
</g>
<!-- c&#45;&gt;ig -->
<g id="edge3" class="edge">
<title>c&#45;&gt;ig</title>
<path fill="none" stroke="#000000" d="M123.1586,-244.997C154.6337,-232.1855 198.9791,-214.1354 232.9537,-200.3065"/>
<polygon fill="#000000" stroke="#000000" points="234.2994,-203.5377 242.242,-196.5259 231.6603,-197.0542 234.2994,-203.5377"/>
<text text-anchor="middle" x="194.8426" y="-218.6" font-family="Times,serif" font-size="8.00" fill="#000000">ref</text>
</g>
<!-- c&#45;&gt;fs -->
<g id="edge9" class="edge">
<title>c&#45;&gt;fs</title>
<path fill="none" stroke="#ff0000" d="M87.6697,-232.8645C93.7861,-195.5917 108.4327,-128.972 139.8426,-81 163.6197,-44.6854 213.5348,-29.1547 247.6275,-22.6134"/>
<polygon fill="#ff0000" stroke="#ff0000" points="84.1721,-232.5803 86.0998,-242.9983 91.0895,-233.652 84.1721,-232.5803"/>
<text text-anchor="middle" x="122.3426" y="-137.6" font-family="Times,serif" font-size="8.00" fill="#000000">inject</text>
</g>
<!-- m&#45;&gt;ig -->
<g id="edge4" class="edge">
<title>m&#45;&gt;ig</title>
<path fill="none" stroke="#000000" d="M272.0194,-242.6198C273.7859,-232.3991 276.0211,-219.4672 278.0009,-208.0125"/>
<polygon fill="#000000" stroke="#000000" points="281.4722,-208.4784 279.7265,-198.0284 274.5745,-207.2862 281.4722,-208.4784"/>
<text text-anchor="middle" x="281.8426" y="-218.6" font-family="Times,serif" font-size="8.00" fill="#000000">ref</text>
</g>
<!-- m&#45;&gt;fs -->
<g id="edge10" class="edge">
<title>m&#45;&gt;fs</title>
<path fill="none" stroke="#ff0000" d="M221.9851,-239.7119C204.3796,-229.4819 185.763,-215.5726 173.8426,-198 144.3444,-154.515 129.2175,-125.6983 156.8426,-81 176.515,-49.1693 217.679,-32.8831 247.6187,-24.9305"/>
<polygon fill="#ff0000" stroke="#ff0000" points="220.6134,-242.9526 231.0587,-244.726 223.9991,-236.8259 220.6134,-242.9526"/>
<text text-anchor="middle" x="154.3426" y="-137.6" font-family="Times,serif" font-size="8.00" fill="#000000">inject</text>
</g>
<!-- mr&#45;&gt;ig -->
<g id="edge5" class="edge">
<title>mr&#45;&gt;ig</title>
<path fill="none" stroke="#000000" d="M433.4744,-244.2167C403.8243,-231.5764 363.011,-214.1771 331.3457,-200.6777"/>
<polygon fill="#000000" stroke="#000000" points="332.4063,-197.3251 321.8348,-196.623 329.6611,-203.7643 332.4063,-197.3251"/>
<text text-anchor="middle" x="388.8426" y="-218.6" font-family="Times,serif" font-size="8.00" fill="#000000">ref</text>
</g>
<!-- mr&#45;&gt;fs -->
<g id="edge11" class="edge">
<title>mr&#45;&gt;fs</title>
<path fill="none" stroke="#ff0000" d="M473.6222,-232.663C473.3606,-195.1661 468.298,-128.2977 438.8426,-81 428.2699,-64.023 420.6967,-63.0127 402.8426,-54 375.7559,-40.3267 342.5567,-30.8653 317.9498,-25.0857"/>
<polygon fill="#ff0000" stroke="#ff0000" points="470.1215,-232.8465 473.5782,-242.8615 477.1214,-232.8768 470.1215,-232.8465"/>
<text text-anchor="middle" x="473.3426" y="-137.6" font-family="Times,serif" font-size="8.00" fill="#000000">inject</text>
</g>
</g>
</svg>
